<svg width="626" height="188" viewBox="0 0 626 188" fill="none" xmlns="http://www.w3.org/2000/svg">
<g clip-path="url(#clip0_308_2)">
<path fill-rule="evenodd" clip-rule="evenodd" d="M45.8034 115.643C50.5623 113.429 53.5455 109.016 53.5455 104.222C53.5455 96.8342 48.1758 92.957 37.82 92.957H11.3548C12.889 93.3376 13.7271 94.3245 13.7271 95.7767C13.7271 96.2279 13.6561 96.7636 13.4998 97.4546L4.36558 138.187C3.52743 142.149 2.44781 143.447 -0.00976562 143.742H26.4554C36.2715 143.742 42.3372 142.149 46.5564 138.413C49.6957 135.678 51.6136 131.561 51.6136 127.825C51.6136 125.47 50.9175 123.256 49.6248 121.663C47.6361 119.153 44.866 118.011 38.9563 117.321C42.4083 117.01 43.7152 116.714 45.7892 115.643H45.8034ZM27.6203 103.616H33.0611C35.902 103.616 37.1239 104.687 37.1239 107.197C37.1239 110.778 34.6663 112.907 30.6743 112.907H25.532L27.6061 103.616H27.6203ZM23.4722 122.044H30.3051C34.1405 122.044 36.1293 123.566 36.1293 126.386C36.1293 130.419 32.9047 133.083 28.1458 133.083H21.0146L23.4722 122.044Z" fill="black"/>
<path fill-rule="evenodd" clip-rule="evenodd" d="M80.0272 143.742H96.7329C95.0994 143.136 93.7356 141.571 92.9826 139.484L88.0107 125.681C95.3124 124.257 99.8013 118.772 99.8013 111.399C99.8013 106.323 98.0256 103.15 94.0056 100.979C90.7383 99.2169 87.4568 98.6106 81.263 98.6106H59.2443C60.6081 98.949 61.3608 99.7667 61.3608 101.05C61.3608 101.388 61.29 101.924 61.1619 102.544L53.0507 138.808C52.2266 142.332 51.3459 143.404 49.1582 143.742H68.4496C66.9438 143.263 66.4039 142.586 66.4039 141.233C66.4039 140.894 66.475 140.358 66.6027 139.738L69.2592 127.697H74.7853L80.0414 143.728L80.0272 143.742ZM73.6204 108.085H79.8283C83.6495 108.085 85.6241 109.58 85.6241 112.287C85.6241 116.15 82.6979 118.237 77.3138 118.237H71.3902L73.6345 108.085H73.6204Z" fill="black"/>
<path fill-rule="evenodd" clip-rule="evenodd" d="M125.11 138.864L125.252 139.95C125.324 140.147 125.324 140.429 125.324 140.627C125.324 142.389 124.571 143.404 123.008 143.742H141.688C139.842 143.263 139.373 142.53 138.89 139.484L132.554 98.6106H115.65C116.871 99.0899 117.354 99.6258 117.354 100.5C117.354 100.979 117.155 101.445 116.672 102.192L94.9234 138.187C92.5368 142.248 91.3152 143.404 89.2695 143.742H106.316C105.222 143.334 104.754 142.798 104.754 141.91C104.754 141.43 105.024 140.485 105.365 139.95L109.257 133.182H124.329L125.153 138.864H125.11ZM113.789 125.258L120.124 113.824C120.536 113.077 121.076 111.934 121.63 110.44V111.455C121.63 113.147 121.701 114.36 121.829 115.107L123.193 125.258H113.789Z" fill="black"/>
<path fill-rule="evenodd" clip-rule="evenodd" d="M149.11 101.106C149.11 101.445 149.039 101.98 148.911 102.601L140.8 138.794C140.047 142.318 139.166 143.46 136.979 143.728H154.636C156.881 143.728 159.267 143.587 161.654 143.39C169.964 142.516 175.419 140.415 180.121 136.157C185.576 131.279 188.985 123.848 188.985 116.742C188.985 112.541 187.821 108.833 185.647 105.985C181.698 100.641 175.561 98.6106 163.557 98.6106H147.064C148.357 98.949 149.11 99.8231 149.11 101.12V101.106ZM161.384 108.339H163.088C171.001 108.339 174.68 111.187 174.68 117.264C174.68 121.86 172.833 126.471 169.836 129.573C167.038 132.477 163.287 133.774 157.975 133.774H155.73L161.384 108.339Z" fill="black"/>
<path d="M222.383 108.085C224.429 108.085 225.039 108.691 225.309 110.933L228.108 98.6245H194.028C195.392 98.9627 196.145 99.7806 196.145 101.064C196.145 101.402 196.074 101.938 195.946 102.488L187.835 138.822C187.011 142.346 186.13 143.488 183.942 143.756H203.234C201.799 143.347 201.188 142.544 201.188 141.247C201.188 140.838 201.259 140.302 201.387 139.752L204.455 125.878H217.34C219.045 125.878 219.925 126.555 220.337 128.106L223.477 113.965C222.525 115.797 221.573 116.404 219.726 116.404H206.572L208.419 108.085H222.397H222.383Z" fill="black"/>
<path fill-rule="evenodd" clip-rule="evenodd" d="M233.47 105.04C228.214 110.383 224.818 118.504 224.818 125.949C224.818 131.433 227.063 136.904 230.614 140.09C234.166 143.277 239.947 145.096 246.709 145.096C254.338 145.096 261.03 142.868 265.873 138.596C271.669 133.591 275.348 124.99 275.348 116.742C275.348 105.166 266.754 97.5952 253.599 97.5952C245.417 97.5952 238.257 100.232 233.484 105.04H233.47ZM261.014 116.333C261.014 121.479 259.309 126.414 256.312 130.475C253.656 133.999 250.928 135.409 247.036 135.409C242.121 135.409 239.067 131.955 239.067 126.541C239.067 121.804 240.842 115.783 243.3 112.273C245.345 109.298 249.096 107.267 252.576 107.267H252.846C258.229 107.408 261.03 110.51 261.03 116.333H261.014Z" fill="black"/>
<path fill-rule="evenodd" clip-rule="evenodd" d="M302.32 143.742H319.026C317.39 143.136 316.028 141.571 315.275 139.484L310.303 125.681C317.591 124.257 322.094 118.772 322.094 111.399C322.094 106.323 320.317 103.15 316.298 100.979C313.032 99.2169 309.75 98.6106 303.554 98.6106H281.536C282.901 98.949 283.653 99.7667 283.653 101.05C283.653 101.388 283.581 101.924 283.455 102.544L275.343 138.808C274.518 142.332 273.637 143.404 271.45 143.742H290.743C289.236 143.263 288.695 142.586 288.695 141.233C288.695 140.894 288.767 140.358 288.896 139.738L291.552 127.697H297.078L302.333 143.728L302.32 143.742ZM295.913 108.085H302.122C305.942 108.085 307.915 109.58 307.915 112.287C307.915 116.15 304.989 118.237 299.605 118.237H293.669L295.913 108.085Z" fill="black"/>
<path fill-rule="evenodd" clip-rule="evenodd" d="M329.601 101.106C329.601 101.445 329.529 101.98 329.4 102.601L321.291 138.794C320.536 142.318 319.657 143.46 317.468 143.728H335.127C337.371 143.728 339.756 143.587 342.145 143.39C350.468 142.516 355.909 140.415 360.61 136.157C366.067 131.279 369.475 123.848 369.475 116.742C369.475 112.541 368.31 108.833 366.136 105.985C362.187 100.641 356.05 98.6106 344.048 98.6106H327.556C328.847 98.949 329.601 99.8231 329.601 101.12V101.106ZM341.874 108.339H343.579C351.491 108.339 355.169 111.187 355.169 117.264C355.169 121.86 353.325 126.471 350.326 129.573C347.529 132.477 343.778 133.774 338.466 133.774H336.219L341.874 108.339Z" fill="black"/>
<path d="M426.819 144.264H443.082L462.035 99.3436C463.64 95.5367 464.946 94.0845 467.561 92.9426H449.221C450.754 93.3232 451.364 94.0845 451.364 95.6073C451.364 96.8197 450.911 98.6526 450.058 100.627L439.318 126.287L436.706 92.9426H426.662L408.791 126.287L410.012 98.0464C410.084 95.001 411.092 93.4782 413.464 92.9426H391.673C393.973 93.6333 394.671 94.7754 394.671 97.7363V98.0464L393.832 144.264H410.169L425.582 115.403L426.804 144.264H426.819Z" fill="black"/>
<path d="M482.082 138.793C481.33 142.247 480.377 143.46 478.205 143.728H497.495C496.06 143.249 495.45 142.515 495.45 141.218C495.45 140.88 495.522 140.344 495.648 139.724L503.688 103.531C504.512 100.077 505.394 98.9346 507.568 98.5962H488.275C489.568 98.9346 490.393 99.8792 490.393 101.106C490.393 101.444 490.321 101.924 490.122 102.6L487.252 115.656H473.346L476.002 103.545C476.827 100.091 477.708 98.9485 479.895 98.6101H460.602C461.968 98.9485 462.72 99.8228 462.72 101.12C462.72 101.458 462.648 101.994 462.522 102.615L454.409 138.807C453.6 142.332 452.704 143.474 450.532 143.742H469.822C468.46 143.333 467.777 142.459 467.777 141.232C467.777 140.894 467.849 140.288 467.975 139.611L471.244 125.131H485.15L482.082 138.793Z" fill="black"/>
<path d="M512.988 101.106C512.988 101.444 512.918 101.98 512.789 102.6L504.677 138.793C503.925 142.318 502.974 143.46 500.787 143.728H520.149C518.658 143.249 518.032 142.515 518.032 141.218C518.032 140.809 518.104 140.274 518.23 139.724L526.342 103.531C527.095 100.077 527.976 98.9346 530.163 98.5962H510.873C512.235 98.9346 512.988 99.8087 512.988 101.106Z" fill="black"/>
<path d="M564.111 108.085C567.664 108.085 568.133 108.494 568.615 111.54L571.484 98.6106H531.611L528.883 110.863C529.975 108.692 531.127 108.085 534.069 108.085H542.377L535.488 138.808C534.736 142.332 533.855 143.404 531.596 143.742H550.958C549.523 143.334 548.84 142.53 548.84 141.233C548.84 140.824 548.912 140.288 549.041 139.738L556.128 108.071H564.099L564.111 108.085Z" fill="black"/>
<path d="M603.575 108.085C605.35 108.085 606.231 108.762 606.574 110.454L609.23 98.6106H574.256C575.619 98.949 576.302 99.8231 576.302 101.12C576.302 101.529 576.23 102.065 576.101 102.671L568.061 138.808C567.308 142.262 566.358 143.475 564.184 143.742H600.038L602.694 132.11C601.19 133.873 600.45 134.282 598.263 134.282H582.85L584.824 125.413H597.568C599.541 125.413 600.564 126.09 600.976 127.585L604.044 113.781C602.681 115.473 601.659 115.953 599.613 115.953H586.926L588.631 108.099H603.562L603.575 108.085Z" fill="black"/>
<path d="M282.169 0C284.457 4.56817 289.583 13.0136 300.339 17.3703C318.464 24.7161 331.42 17.2998 346.719 21.1771C356.408 23.6304 360.924 28.3254 360.301 29.679L355.981 47.8388C354.461 44.6948 351.82 41.762 343.793 39.6896C326.904 35.3329 312.47 43.9897 295.338 38.0118C285.977 34.7406 278.56 26.2811 276.571 21.445L282.198 0.0140993L282.169 0Z" fill="black"/>
<path d="M275.821 24.7305C278.392 29.0447 282.782 36.5176 294.885 41.0432C309.231 46.4151 328.31 39.154 343.61 43.0172C353.299 45.4705 355.215 51.7023 355.215 51.7023L350.684 71.1032C349.859 68.0012 346.224 64.4624 338.367 62.5306C319.817 57.9483 306.676 67.5641 289.331 61.0925C280.167 57.6663 274.428 51.1244 270.806 45.0899L275.806 24.7446L275.821 24.7305Z" fill="black"/>
<path d="M269.84 47.5426C272.439 51.5751 276.389 59.1041 288.875 64.4054C302.328 70.1155 321.79 61.6418 337.09 65.5193C346.779 67.9726 349.108 71.7089 349.819 74.2608L345.13 94.0703C343.881 91.2222 340.995 87.4437 333.254 85.1032C320.17 81.1271 300.169 89.7842 281.732 82.9742C272.553 79.5902 265.45 72.3857 264.214 69.2556L269.856 47.5426H269.84Z" fill="black"/>
<path fill-rule="evenodd" clip-rule="evenodd" d="M614.567 101.727C614.567 104.857 617.126 107.366 620.279 107.366C623.432 107.366 626.018 104.857 626.018 101.727C626.018 98.5965 623.46 96.0868 620.279 96.0868C617.097 96.0868 614.567 98.6248 614.567 101.727ZM625.137 101.727C625.137 104.433 622.95 106.605 620.279 106.605C617.61 106.605 615.42 104.433 615.42 101.727C615.42 99.0193 617.581 96.8764 620.25 96.8764C622.922 96.8764 625.137 99.0477 625.137 101.727ZM620.024 102.234L621.672 104.828H623.205C622.922 104.744 622.78 104.603 622.553 104.236L621.131 102.093C621.131 102.093 621.216 102.065 621.245 102.065C622.239 101.811 622.638 101.332 622.638 100.429C622.638 99.1885 621.814 98.6248 620.052 98.6248H617.553C617.893 98.7373 617.978 98.8501 617.978 99.2449V104.208C617.978 104.603 617.865 104.772 617.553 104.828H619.483C619.143 104.715 619.058 104.603 619.058 104.208V102.234H620.024ZM619.058 99.4141H620.052C620.99 99.4141 621.5 99.7809 621.5 100.458C621.5 101.134 621.075 101.416 620.052 101.416H619.058V99.4141Z" fill="black"/>
<path d="M58.1641 167.386H61.7724L65.4375 182.783H65.4942L69.5853 167.386H73.2221L77.1996 182.783H77.2565L81.0352 167.386H84.6433L79.0464 187.52H75.4383L71.3755 172.124H71.3186L67.1705 187.52H63.5054L58.1641 167.386Z" fill="black"/>
<path d="M113.013 167.386H116.792L124.605 187.52H120.798L118.894 182.191H110.797L108.894 187.52H105.229L113.013 167.386ZM111.763 179.512H117.957L114.917 170.855H114.831L111.763 179.512Z" fill="black"/>
<path d="M143.297 167.386H159.719V170.432H153.269V187.52H149.718V170.432H143.297V167.386Z" fill="black"/>
<path d="M183.389 167.386H197.992V170.432H186.94V175.705H197.168V178.581H186.94V184.475H198.191V187.52H183.389V167.386Z" fill="black"/>
<path d="M222.594 167.386H232.282C236.714 167.386 238.987 169.417 238.987 172.829C238.987 176.692 236.288 177.679 235.635 177.905V177.961C236.856 178.13 238.646 179.033 238.646 182.219C238.646 184.56 238.987 186.703 239.754 187.52H235.947C235.407 186.646 235.407 185.546 235.407 184.56C235.407 180.866 234.64 179.23 231.373 179.23H226.145V187.52H222.594V167.386ZM226.145 176.551H231.97C234.214 176.551 235.436 175.451 235.436 173.336C235.436 170.77 233.759 170.263 231.913 170.263H226.145V176.551Z" fill="black"/>
<path d="M293.024 167.386H296.577V175.395H305.81V167.386H309.362V187.52H305.81V178.44H296.577V187.52H293.024V167.386Z" fill="black"/>
<path d="M334.938 167.386H349.54V170.432H338.488V175.705H348.718V178.581H338.488V184.475H349.741V187.52H334.938V167.386Z" fill="black"/>
<path d="M379.562 167.386H383.342L391.155 187.52H387.347L385.444 182.191H377.347L375.443 187.52H371.777L379.562 167.386ZM378.313 179.512H384.506L381.466 170.855H381.381L378.313 179.512Z" fill="black"/>
<path d="M409.857 167.386H426.278V170.432H419.83V187.52H416.277V170.432H409.857V167.386Z" fill="black"/>
<path d="M449.937 167.386H464.541V170.432H453.489V175.705H463.716V178.581H453.489V184.475H464.739V187.52H449.937V167.386Z" fill="black"/>
<path d="M489.153 167.386H498.842C503.273 167.386 505.545 169.417 505.545 172.829C505.545 176.692 502.848 177.679 502.194 177.905V177.961C503.415 178.13 505.205 179.033 505.205 182.219C505.205 184.56 505.545 186.703 506.313 187.52H502.505C501.967 186.646 501.967 185.546 501.967 184.56C501.967 180.866 501.199 179.23 497.933 179.23H492.703V187.52H489.153V167.386ZM492.703 176.551H498.528C500.774 176.551 501.995 175.451 501.995 173.336C501.995 170.77 500.318 170.263 498.471 170.263H492.703V176.551Z" fill="black"/>
<path d="M532.785 180.809C532.785 183.911 535.086 185.124 537.927 185.124C541.052 185.124 542.219 183.601 542.219 182.078C542.219 180.556 541.366 179.907 540.542 179.597C539.12 179.061 537.275 178.695 534.491 177.933C531.023 177.003 530 174.916 530 172.829C530 168.797 533.751 166.907 537.417 166.907C541.65 166.907 545.202 169.135 545.202 173.337H541.65C541.48 170.742 539.718 169.784 537.275 169.784C535.627 169.784 533.553 170.376 533.553 172.406C533.553 173.816 534.519 174.606 535.967 175C536.281 175.085 540.769 176.241 541.82 176.551C544.491 177.341 545.769 179.597 545.769 181.683C545.769 186.195 541.735 188 537.701 188C533.069 188 529.32 185.801 529.235 180.809H532.785Z" fill="black"/>
</g>
<defs>
<clipPath id="clip0_308_2">
<rect width="626" height="188" fill="white"/>
</clipPath>
</defs>
</svg>
