<svg width="638" height="143" viewBox="0 0 638 143" fill="none" xmlns="http://www.w3.org/2000/svg">
<path d="M158.123 2.95732L143.626 77.3416L129.082 2.95732H86.4285V30.4229C81.3064 6.38554 63.2365 0.346299 46.4947 0.00746408C26.1009 -0.331371 4.71112 10.8103 3.92066 44.8134H32.14C32.14 34.5487 38.3846 28.6689 45.4196 28.8084C54.0514 28.7287 58.0353 33.3727 58.2408 40.6278C57.9405 46.9062 55 51.2911 45.4829 51.2911H35.9974V75.9862H44.6134C49.4984 75.9862 56.3121 79.3347 56.5809 88.1245C56.9129 98.5885 51.1267 103.213 44.0284 103.292C31.3337 102.714 29.2785 90.3967 29.2785 79.833H0C0.126473 86.9485 -1.26473 133.349 44.645 133.01C66.6355 133.269 81.9862 121.609 86.4918 105.545V130.16H115.391V49.9358L131.01 130.18H156.257L171.94 50.0155V130.26H200.76V2.95732H158.123ZM86.5076 77.1622C82.9189 67.7745 77.86 63.6686 74.9985 62.373C80.9744 59.0246 84.1204 54.4802 86.5076 45.4114V77.1622Z" fill="#FF0000"/>
<path d="M253.457 17.3091C253.062 14.6034 251.29 10.3458 246.323 10.3458C242.621 10.3458 240.185 13.3301 240.185 16.6128C240.185 19.3186 241.561 21.4871 244.44 22.1835L249.914 23.5165C257.048 25.2673 260.876 31.1165 260.876 38.0599C260.876 45.66 255.83 53.2998 246.702 53.2998C236.293 53.2998 231.706 44.8641 231.089 37.8411L238.176 35.4736C238.508 40.3678 241.213 44.7448 246.75 44.7448C250.847 44.7448 253.109 42.1584 253.109 38.6767C253.109 35.8317 251.401 33.5835 248.348 32.8275L242.858 31.4348C236.61 29.8432 232.576 24.75 232.576 17.3091C232.576 8.53529 238.824 1.85046 246.244 1.85046C255.767 1.85046 259.421 9.09236 260.307 14.6829L253.457 17.3091Z" fill="black"/>
<path d="M271.614 35.1354C271.614 41.3427 274.825 44.8244 278.59 44.8244C282.355 44.8244 284.238 41.6809 284.839 39.0548L291.309 41.7605C290.091 47.4705 285.835 53.3197 278.59 53.3197C270.554 53.3197 264.242 45.66 264.242 35.1553C264.242 24.571 270.443 16.9709 278.353 16.9709C285.772 16.9709 289.98 22.7406 291.135 28.5301L284.538 31.3155C283.874 28.4704 282.165 25.5458 278.511 25.5458C274.778 25.5259 271.614 28.9479 271.614 35.1354Z" fill="black"/>
<path d="M299.901 1.03491C302.448 1.03491 304.441 3.6213 304.441 6.80455C304.441 9.86843 302.448 12.4349 299.901 12.4349C297.418 12.4349 295.361 9.86843 295.361 6.80455C295.361 3.60141 297.418 1.03491 299.901 1.03491ZM296.247 52.2654V18.0255H303.603V52.2654H296.247Z" fill="black"/>
<path d="M335.603 42.4568C334.227 48.3658 329.908 53.2998 323.201 53.2998C315.734 53.2998 309.138 46.5553 309.138 34.9961C309.138 24.0537 315.56 16.951 322.536 16.951C330.952 16.951 335.999 23.7155 335.999 34.6977C335.999 36.0307 335.888 37.4233 335.888 37.5626H316.399C316.557 42.0788 319.61 45.3616 323.264 45.3616C326.697 45.3616 328.579 43.2129 329.465 40.149L335.603 42.4568ZM328.738 31.2359C328.627 27.8338 326.855 24.4914 322.647 24.4914C318.835 24.4914 316.731 28.1123 316.557 31.2359H328.738Z" fill="black"/>
<path d="M348.542 52.2654H341.187V18.0255H348.321V22.2632C349.982 18.702 353.241 17.1302 356.183 17.1302C362.938 17.1302 366.038 23.1784 366.038 30.6989V52.2654H358.682V32.2706C358.682 28.4507 357.195 25.4465 353.652 25.4465C350.441 25.4465 348.558 28.59 348.558 32.5491V52.2654H348.542Z" fill="black"/>
<path d="M377.999 35.1354C377.999 41.3427 381.21 44.8244 384.975 44.8244C388.74 44.8244 390.622 41.6809 391.223 39.0548L397.693 41.7605C396.475 47.4705 392.22 53.3197 384.959 53.3197C376.923 53.3197 370.627 45.66 370.627 35.1553C370.627 24.571 376.828 16.9709 384.738 16.9709C392.157 16.9709 396.365 22.7406 397.519 28.5301L390.923 31.3155C390.258 28.4704 388.55 25.5458 384.896 25.5458C381.162 25.5259 377.999 28.9479 377.999 35.1354Z" fill="black"/>
<path d="M427.102 42.4568C425.71 48.3658 421.391 53.2998 414.7 53.2998C407.233 53.2998 400.637 46.5553 400.637 34.9961C400.637 24.0537 407.059 16.951 414.035 16.951C422.451 16.951 427.482 23.7155 427.482 34.6977C427.482 36.0307 427.371 37.4233 427.371 37.5626H407.882C408.056 42.0788 411.093 45.3616 414.747 45.3616C418.18 45.3616 420.063 43.2129 420.948 40.149L427.102 42.4568ZM420.237 31.2359C420.126 27.8338 418.354 24.4914 414.146 24.4914C410.334 24.4914 408.23 28.1123 408.056 31.2359H420.237Z" fill="black"/>
<path d="M437.004 40.0896C439.82 40.0896 442.098 42.9346 442.098 46.4362C442.098 49.898 439.82 52.7629 437.004 52.7629C434.236 52.7629 431.974 49.898 431.974 46.4362C431.974 42.9346 434.236 40.0896 437.004 40.0896Z" fill="black"/>
<path d="M257.283 117.661H241.337L238.079 128.942H229.995L245.055 79.5818H253.914L268.847 128.942H260.542L257.283 117.661ZM243.884 108.888H254.736L249.31 90.2258L243.884 108.888Z" fill="black"/>
<path d="M272.945 142.172V94.682H280.096V98.8601C281.314 96.214 284.351 93.9061 288.448 93.9061C296.421 93.9061 301.008 101.566 301.008 111.732C301.008 122.098 295.867 129.777 288.163 129.777C284.398 129.777 281.63 127.887 280.301 125.599V142.172H272.945ZM287.008 102.202C283.244 102.202 280.206 105.764 280.206 111.812C280.206 117.86 283.244 121.481 287.008 121.481C290.773 121.481 293.763 117.94 293.763 111.812C293.747 105.744 290.773 102.202 287.008 102.202Z" fill="black"/>
<path d="M305.881 142.172V94.682H313.031V98.8601C314.249 96.214 317.286 93.9061 321.384 93.9061C329.356 93.9061 333.944 101.566 333.944 111.732C333.944 122.098 328.803 129.777 321.099 129.777C317.334 129.777 314.566 127.887 313.253 125.599V142.172H305.881ZM319.944 102.202C316.179 102.202 313.142 105.764 313.142 111.812C313.142 117.86 316.179 121.481 319.944 121.481C323.709 121.481 326.699 117.94 326.699 111.812C326.699 105.744 323.709 102.202 319.944 102.202Z" fill="black"/>
<path d="M338.924 128.922V78.5271H346.296V128.922H338.924Z" fill="black"/>
<path d="M357.515 77.6914C360.062 77.6914 362.055 80.2778 362.055 83.461C362.055 86.5249 360.062 89.0914 357.515 89.0914C355.015 89.0914 352.975 86.5249 352.975 83.461C352.975 80.2778 355.031 77.6914 357.515 77.6914ZM353.876 128.922V94.682H361.232V128.922H353.876Z" fill="black"/>
<path d="M393.439 119.114C392.063 125.042 387.744 129.976 381.037 129.976C373.57 129.976 366.974 123.232 366.974 111.673C366.974 100.73 373.396 93.6277 380.372 93.6277C388.788 93.6277 393.819 100.392 393.819 111.374C393.819 112.707 393.708 114.1 393.708 114.239H374.235C374.409 118.755 377.446 122.038 381.1 122.038C384.533 122.038 386.415 119.89 387.301 116.826L393.439 119.114ZM386.589 107.913C386.479 104.51 384.707 101.168 380.499 101.168C376.671 101.168 374.567 104.789 374.409 107.913H386.589Z" fill="black"/>
<path d="M425.551 122.734C425.551 125.042 425.662 127.549 425.772 128.942H418.733C418.622 128.246 418.464 126.574 418.464 124.983C417.246 127.688 414.477 129.797 410.823 129.797C403.072 129.797 397.535 122.138 397.535 111.752C397.535 101.725 402.914 93.8465 410.602 93.8465C415.3 93.8465 417.515 96.2936 418.29 98.1041V78.5271H425.551V122.734ZM411.709 121.481C415.474 121.481 418.401 117.86 418.401 111.673C418.401 105.565 415.458 102.143 411.709 102.143C407.944 102.143 404.954 105.625 404.954 111.752C404.954 117.86 407.833 121.481 411.709 121.481Z" fill="black"/>
<path d="M454.499 94.6823H459.972V102.899H454.499V117.224C454.499 120.228 455.606 121.203 457.71 121.203C458.596 121.203 459.592 121.063 459.972 120.924V128.584C459.308 128.922 457.979 129.419 455.827 129.419C450.512 129.419 447.19 125.44 447.19 118.815V102.899H442.271V94.6823H443.663C446.542 94.6823 447.87 92.3147 447.87 89.2508V84.4362H454.514V94.6823H454.499Z" fill="black"/>
<path d="M492.198 111.812C492.198 122.317 486.06 129.976 477.913 129.976C469.782 129.976 463.645 122.317 463.645 111.812C463.645 101.228 469.782 93.6277 477.913 93.6277C486.044 93.6277 492.198 101.228 492.198 111.812ZM484.842 111.812C484.842 105.326 481.52 102.063 477.913 102.063C474.322 102.063 471 105.326 471 111.812C471 118.218 474.322 121.541 477.913 121.541C481.52 121.541 484.842 118.278 484.842 111.812Z" fill="black"/>
<path d="M508.364 128.922V79.5818H516.005V119.731H533.485V128.922H508.364Z" fill="black"/>
<path d="M542.187 77.6914C544.734 77.6914 546.711 80.2778 546.711 83.461C546.711 86.5249 544.718 89.0914 542.187 89.0914C539.687 89.0914 537.647 86.5249 537.647 83.461C537.631 80.2778 539.687 77.6914 542.187 77.6914ZM538.517 128.922V94.682H545.888V128.922H538.517Z" fill="black"/>
<path d="M563.254 90.9217V94.6819H569.392V102.62H563.254V128.922H555.835V102.62H551.295V94.6819H555.835V90.7824C555.835 83.0432 559.711 78.0494 565.738 78.0494C567.288 78.0494 568.791 78.3877 569.392 78.7458V86.5447C568.996 86.3856 568.285 86.1866 567.067 86.1866C565.421 86.1866 563.254 87.1018 563.254 90.9217Z" fill="black"/>
<path d="M597.584 119.114C596.191 125.042 591.873 129.976 585.181 129.976C577.715 129.976 571.118 123.232 571.118 111.673C571.118 100.73 577.525 93.6277 584.517 93.6277C592.933 93.6277 597.963 100.392 597.963 111.374C597.963 112.707 597.852 114.1 597.852 114.239H578.363C578.521 118.755 581.575 122.038 585.229 122.038C588.662 122.038 590.544 119.89 591.43 116.826L597.584 119.114ZM590.718 107.913C590.607 104.51 588.836 101.168 584.628 101.168C580.815 101.168 578.711 104.789 578.537 107.913H590.718Z" fill="black"/>
<path d="M607.487 116.766C610.302 116.766 612.58 119.611 612.58 123.093C612.58 126.574 610.302 129.439 607.487 129.439C604.718 129.439 602.456 126.574 602.456 123.093C602.456 119.611 604.718 116.766 607.487 116.766Z" fill="black"/>
<path d="M624.685 94.6425V79.5818H627.864L631.376 90.5043L634.809 79.5818H638.004V94.6425H635.71V84.1776L632.341 94.6425H630.332L626.963 84.1975V94.6425H624.685Z" fill="black"/>
<path d="M612.582 79.5818H622.516V82.387H618.72V94.6425H616.363V82.387H612.582V79.5818Z" fill="black"/>
</svg>
