<svg width="367" height="281" viewBox="0 0 367 281" fill="none" xmlns="http://www.w3.org/2000/svg">
<g clip-path="url(#clip0_308_35)">
<path d="M0 0H115.234V281H0V0Z" fill="#CC0000"/>
<path d="M30.1394 254.957C29.0172 259.043 28.476 263.266 28.5319 267.502H11.9049C11.4655 256.852 12.5309 246.193 15.0696 235.839C19.7489 217.281 28.9461 200.164 41.8436 186.012C46.052 180.359 51.3457 175.599 57.4157 172.012C63.79 176.23 69.4246 181.469 74.093 187.517C86.1909 201.513 95.0269 218.018 99.9628 235.839C102.41 246.078 103.607 256.575 103.529 267.101H86.6511C86.7661 263.015 86.3439 258.933 85.3953 254.957H30.1394Z" fill="white" stroke="#E30613" stroke-width="0.11" stroke-miterlimit="3.86"/>
<path d="M33.7061 237.696H81.2764C79.4945 230.275 76.7415 223.122 73.0885 216.42C68.8647 208.691 63.4198 201.693 56.9638 195.696C50.7875 201.344 45.6823 208.058 41.894 215.517C38.2775 222.494 35.5439 229.894 33.7563 237.545L33.7061 237.696Z" fill="#CC0000"/>
<path d="M125.381 0H241.418V281H125.381V0Z" fill="#CC0000"/>
<path d="M226.851 252.097C222.033 257.848 216.007 262.47 209.201 265.635C202.395 268.8 194.976 270.431 187.468 270.412C179.101 270.387 170.878 268.238 163.57 264.167C156.263 260.096 150.11 254.237 145.691 247.14C141.272 240.043 138.73 231.941 138.305 223.593C137.88 215.246 139.585 206.928 143.261 199.419C146.936 191.911 152.461 185.458 159.318 180.668C166.174 175.877 174.136 172.906 182.458 172.032C190.779 171.158 199.186 172.411 206.89 175.672C214.593 178.934 221.341 184.098 226.499 190.679L212.836 201.216C209.829 197.468 206 194.461 201.646 192.425C197.291 190.389 192.527 189.38 187.719 189.474C179.577 189.799 171.877 193.258 166.231 199.128C160.585 204.997 157.432 212.821 157.432 220.961C157.432 229.101 160.585 236.925 166.231 242.795C171.877 248.664 179.577 252.124 187.719 252.448C192.471 252.504 197.178 251.528 201.515 249.587C205.851 247.646 209.714 244.787 212.836 241.208L226.047 250.893L226.951 251.896L226.851 252.097Z" fill="white" stroke="#E30613" stroke-width="0.11" stroke-miterlimit="3.86"/>
<path d="M251.565 0H367V281H251.565V0Z" fill="#CC0000"/>
<path d="M260.306 220.786C260.306 207.859 265.443 195.461 274.589 186.315C283.735 177.17 296.141 172.025 309.082 172.012C322.109 171.985 334.622 177.091 343.905 186.222C353.187 195.353 358.489 207.773 358.661 220.786C358.44 233.833 353.14 246.282 343.883 255.49C334.627 264.699 322.144 269.943 309.082 270.111C296.086 269.966 283.673 264.703 274.54 255.467C265.407 246.231 260.292 233.768 260.306 220.786Z" fill="white" stroke="#E30613" stroke-width="0.11" stroke-miterlimit="3.86"/>
<path d="M277.787 220.786C277.787 212.441 281.105 204.439 287.012 198.539C292.919 192.638 300.93 189.324 309.283 189.324C317.636 189.324 325.647 192.638 331.554 198.539C337.461 204.439 340.779 212.441 340.779 220.786C340.779 229.13 337.461 237.132 331.554 243.033C325.647 248.933 317.636 252.248 309.283 252.248C300.93 252.248 292.919 248.933 287.012 243.033C281.105 237.132 277.787 229.13 277.787 220.786Z" fill="#CC0000" stroke="#CC0000" stroke-width="0.06" stroke-miterlimit="3.86"/>
</g>
<defs>
<clipPath id="clip0_308_35">
<rect width="367" height="281" fill="white"/>
</clipPath>
</defs>
</svg>
