<svg width="1649" height="409" viewBox="0 0 1649 409" fill="none" xmlns="http://www.w3.org/2000/svg">
<rect x="209" width="1271" height="409" fill="#42A1DA"/>
<path d="M17.536 234.256C9.77067 234.256 5.888 233.403 5.888 231.696V148.752C5.888 145.851 7.21067 144.4 9.856 144.4H32.384C45.0133 144.4 54.1013 147.003 59.648 152.208C65.28 157.413 68.096 164.965 68.096 174.864C68.096 183.056 65.4507 190.565 60.16 197.392C57.5147 200.805 53.632 203.536 48.512 205.584C43.392 207.632 37.4187 208.656 30.592 208.656V231.568C30.592 232.592 28.9707 233.317 25.728 233.744C22.5707 234.085 19.84 234.256 17.536 234.256ZM30.592 166.672V186.896H32.256C35.2427 186.896 37.76 185.957 39.808 184.08C41.856 182.203 42.88 179.557 42.88 176.144C42.88 172.731 42.1547 170.299 40.704 168.848C39.3387 167.397 36.864 166.672 33.28 166.672H30.592ZM130.655 234.256C123.231 234.256 119.22 233.061 118.623 230.672L114.399 214.16H94.047L90.335 230.032C89.823 232.677 85.727 234 78.047 234C73.951 234 70.9217 233.787 68.959 233.36C66.9963 232.848 66.015 232.464 66.015 232.208L88.671 145.552C88.671 144.869 94.5163 144.528 106.207 144.528C117.898 144.528 123.743 144.869 123.743 145.552L145.887 232.336C145.887 232.933 143.924 233.403 139.999 233.744C136.074 234.085 132.959 234.256 130.655 234.256ZM97.247 197.904H110.687L104.927 171.408H104.159L97.247 197.904ZM177.538 232.208C177.538 233.573 173.485 234.256 165.378 234.256C157.186 234.256 153.09 233.616 153.09 232.336V148.88C153.09 145.893 154.669 144.4 157.826 144.4H182.274C204.717 144.4 215.938 153.147 215.938 170.64C215.938 175.931 214.914 180.752 212.866 185.104C210.818 189.371 207.917 192.784 204.162 195.344L220.29 222.224C219.607 224.272 217.389 226.619 213.634 229.264C208.514 232.933 204.29 234.768 200.962 234.768C197.634 234.768 195.159 233.573 193.538 231.184L181.506 203.152H177.538V232.208ZM177.538 167.056V186.256H178.178C186.285 186.256 190.338 182.885 190.338 176.144C190.338 173.072 189.527 170.811 187.906 169.36C186.37 167.824 183.81 167.056 180.226 167.056H177.538ZM265.838 231.952C265.838 233.659 261.614 234.512 253.166 234.512C244.718 234.512 240.494 233.659 240.494 231.952V167.696H225.134C223.683 167.696 222.659 165.733 222.062 161.808C221.806 159.931 221.678 158.011 221.678 156.048C221.678 154.085 221.806 152.165 222.062 150.288C222.659 146.363 223.683 144.4 225.134 144.4H280.814C282.265 144.4 283.289 146.363 283.886 150.288C284.142 152.165 284.27 154.085 284.27 156.048C284.27 158.011 284.142 159.931 283.886 161.808C283.289 165.733 282.265 167.696 280.814 167.696H265.838V231.952ZM360.424 231.184C360.424 232.976 356.413 233.872 348.392 233.872C340.371 233.872 336.019 233.232 335.336 231.952L313.96 192.016V231.824C313.96 233.36 309.992 234.128 302.056 234.128C294.205 234.128 290.28 233.36 290.28 231.824V146.192C290.28 144.912 293.651 144.272 300.392 144.272C303.037 144.272 306.109 144.528 309.608 145.04C313.192 145.467 315.368 146.32 316.136 147.6L336.616 187.024V146.832C336.616 145.211 340.584 144.4 348.52 144.4C356.456 144.4 360.424 145.211 360.424 146.832V231.184ZM413.6 179.984C415.221 179.984 416.032 182.971 416.032 188.944C416.032 190.736 415.819 192.869 415.392 195.344C415.051 197.733 414.368 198.928 413.344 198.928H397.088V211.728H420.64C422.091 211.728 423.072 213.605 423.584 217.36C423.84 218.981 423.968 220.731 423.968 222.608C423.968 224.4 423.712 226.747 423.2 229.648C422.688 232.549 421.835 234 420.64 234H376.864C373.621 234 372 232.677 372 230.032V147.728C372 145.509 372.981 144.4 374.944 144.4H420.768C422.56 144.4 423.456 148.197 423.456 155.792C423.456 163.301 422.56 167.056 420.768 167.056H397.088V179.984H413.6ZM458.293 232.208C458.293 233.573 454.24 234.256 446.133 234.256C437.941 234.256 433.845 233.616 433.845 232.336V148.88C433.845 145.893 435.424 144.4 438.581 144.4H463.029C485.472 144.4 496.693 153.147 496.693 170.64C496.693 175.931 495.669 180.752 493.621 185.104C491.573 189.371 488.672 192.784 484.917 195.344L501.045 222.224C500.362 224.272 498.144 226.619 494.389 229.264C489.269 232.933 485.045 234.768 481.717 234.768C478.389 234.768 475.914 233.573 474.293 231.184L462.261 203.152H458.293V232.208ZM458.293 167.056V186.256H458.933C467.04 186.256 471.093 182.885 471.093 176.144C471.093 173.072 470.282 170.811 468.661 169.36C467.125 167.824 464.565 167.056 460.981 167.056H458.293ZM516.513 211.984V166.416H507.425C505.974 166.416 504.95 164.581 504.353 160.912C504.097 159.12 503.969 157.285 503.969 155.408C503.969 153.531 504.097 151.696 504.353 149.904C504.95 146.235 505.974 144.4 507.425 144.4H550.433C551.884 144.4 552.865 146.235 553.377 149.904C553.718 151.696 553.889 153.531 553.889 155.408C553.889 157.285 553.718 159.12 553.377 160.912C552.865 164.581 551.884 166.416 550.433 166.416H541.857V211.984H550.817C552.268 211.984 553.292 213.819 553.889 217.488C554.23 219.28 554.401 221.115 554.401 222.992C554.401 224.869 554.23 226.704 553.889 228.496C553.292 232.165 552.268 234 550.817 234H507.681C506.23 234 505.249 232.165 504.737 228.496C504.396 226.704 504.225 224.869 504.225 222.992C504.225 221.115 504.396 219.28 504.737 217.488C505.249 213.819 506.23 211.984 507.681 211.984H516.513ZM631.804 231.184C631.804 232.976 627.793 233.872 619.772 233.872C611.751 233.872 607.399 233.232 606.716 231.952L585.34 192.016V231.824C585.34 233.36 581.372 234.128 573.436 234.128C565.585 234.128 561.66 233.36 561.66 231.824V146.192C561.66 144.912 565.031 144.272 571.772 144.272C574.417 144.272 577.489 144.528 580.988 145.04C584.572 145.467 586.748 146.32 587.516 147.6L607.996 187.024V146.832C607.996 145.211 611.964 144.4 619.9 144.4C627.836 144.4 631.804 145.211 631.804 146.832V231.184ZM690.74 207.248L690.996 189.84C690.996 188.645 692.233 187.877 694.708 187.536C697.183 187.109 699.231 186.896 700.852 186.896L705.844 187.28C709.087 187.792 710.708 188.688 710.708 189.968L710.196 230.032C708.489 231.227 705.033 232.421 699.828 233.616C694.708 234.725 688.82 235.28 682.164 235.28C669.791 235.28 659.807 231.269 652.212 223.248C644.617 215.227 640.82 203.451 640.82 187.92C640.82 174.693 644.532 163.941 651.956 155.664C659.38 147.387 669.663 143.248 682.804 143.248C688.777 143.248 694.153 143.845 698.932 145.04C703.796 146.149 707.124 147.685 708.916 149.648C709.001 150.331 709.044 151.611 709.044 153.488C709.044 155.365 708.404 158.053 707.124 161.552C705.844 164.965 704.393 167.525 702.772 169.232C701.151 170.939 699.956 171.792 699.188 171.792C698.505 171.792 697.737 171.493 696.884 170.896C696.116 170.213 694.537 169.531 692.148 168.848C689.759 168.08 687.455 167.696 685.236 167.696C679.945 167.696 675.636 169.403 672.308 172.816C669.065 176.229 667.444 181.52 667.444 188.688C667.444 195.856 669.108 201.317 672.436 205.072C675.849 208.741 679.732 210.576 684.084 210.576C688.521 210.576 690.74 209.467 690.74 207.248ZM792.317 144.4C793.768 144.4 794.493 148.197 794.493 155.792C794.493 163.301 793.768 167.056 792.317 167.056H768.893V181.648H784.509C785.96 181.648 786.685 184.976 786.685 191.632C786.685 198.203 786.002 201.488 784.637 201.488H768.893V232.336C768.893 233.531 767.272 234.299 764.029 234.64C760.872 235.067 758.226 235.28 756.093 235.28L750.077 235.024C745.896 234.512 743.805 233.659 743.805 232.464V147.728C743.805 146.363 744.061 145.467 744.573 145.04C745.17 144.613 746.024 144.4 747.133 144.4H792.317ZM841.556 235.28C829.609 235.28 819.839 231.355 812.244 223.504C804.735 215.653 800.98 204.219 800.98 189.2C800.98 174.096 804.777 162.661 812.372 154.896C820.052 147.131 829.908 143.248 841.94 143.248C854.057 143.248 863.828 147.088 871.252 154.768C878.676 162.363 882.388 173.925 882.388 189.456C882.388 204.901 878.591 216.421 870.996 224.016C863.401 231.525 853.588 235.28 841.556 235.28ZM841.684 167.824C837.588 167.824 834.132 169.701 831.316 173.456C828.585 177.211 827.22 182.501 827.22 189.328C827.22 196.069 828.543 201.275 831.188 204.944C833.833 208.528 837.289 210.32 841.556 210.32C845.908 210.32 849.407 208.485 852.052 204.816C854.783 201.147 856.148 195.899 856.148 189.072C856.148 182.245 854.74 176.997 851.924 173.328C849.193 169.659 845.78 167.824 841.684 167.824ZM915.833 232.208C915.833 233.573 911.78 234.256 903.673 234.256C895.481 234.256 891.385 233.616 891.385 232.336V148.88C891.385 145.893 892.964 144.4 896.121 144.4H920.569C943.012 144.4 954.233 153.147 954.233 170.64C954.233 175.931 953.209 180.752 951.161 185.104C949.113 189.371 946.212 192.784 942.457 195.344L958.585 222.224C957.902 224.272 955.684 226.619 951.929 229.264C946.809 232.933 942.585 234.768 939.257 234.768C935.929 234.768 933.454 233.573 931.833 231.184L919.801 203.152H915.833V232.208ZM915.833 167.056V186.256H916.473C924.58 186.256 928.633 182.885 928.633 176.144C928.633 173.072 927.822 170.811 926.201 169.36C924.665 167.824 922.105 167.056 918.521 167.056H915.833ZM1030.05 179.984C1031.67 179.984 1032.48 182.971 1032.48 188.944C1032.48 190.736 1032.27 192.869 1031.84 195.344C1031.5 197.733 1030.82 198.928 1029.79 198.928H1013.54V211.728H1037.09C1038.54 211.728 1039.52 213.605 1040.03 217.36C1040.29 218.981 1040.42 220.731 1040.42 222.608C1040.42 224.4 1040.16 226.747 1039.65 229.648C1039.14 232.549 1038.28 234 1037.09 234H993.314C990.071 234 988.45 232.677 988.45 230.032V147.728C988.45 145.509 989.431 144.4 991.394 144.4H1037.22C1039.01 144.4 1039.91 148.197 1039.91 155.792C1039.91 163.301 1039.01 167.056 1037.22 167.056H1013.54V179.984H1030.05ZM1097.78 147.856C1098.81 145.296 1104.14 144.016 1113.78 144.016C1116.26 144.016 1119.29 144.229 1122.87 144.656C1126.54 144.997 1128.38 145.339 1128.38 145.68L1106.62 189.968L1129.14 232.336C1129.4 232.763 1127.56 233.189 1123.64 233.616C1119.71 233.957 1116.39 234.128 1113.66 234.128C1102.82 234.128 1096.89 232.677 1095.86 229.776L1086.26 205.328L1077.56 230.544C1076.71 232.933 1071.24 234.128 1061.18 234.128C1058.7 234.128 1055.63 233.957 1051.96 233.616C1048.29 233.275 1046.63 232.805 1046.97 232.208L1066.94 187.92L1046.2 145.68C1045.94 145.253 1047.69 144.869 1051.45 144.528C1055.29 144.101 1058.53 143.888 1061.18 143.888C1071.93 143.888 1077.82 145.424 1078.84 148.496L1087.67 170L1097.78 147.856ZM1173 143.248C1179.23 143.248 1184.69 144.144 1189.38 145.936C1194.16 147.643 1196.55 149.989 1196.55 152.976C1196.55 155.963 1195.4 159.675 1193.09 164.112C1190.88 168.464 1189 170.64 1187.46 170.64C1187.04 170.64 1186.52 170.427 1185.93 170C1185.41 169.488 1184.13 168.976 1182.09 168.464C1180.12 167.867 1178.42 167.568 1176.97 167.568C1172.02 167.568 1168.01 169.317 1164.93 172.816C1161.95 176.315 1160.45 181.691 1160.45 188.944C1160.45 196.112 1161.99 201.445 1165.06 204.944C1168.22 208.443 1172.19 210.192 1176.97 210.192C1178.93 210.192 1181.1 209.936 1183.49 209.424C1185.97 208.827 1187.72 208.016 1188.74 206.992C1188.91 206.821 1189.25 206.736 1189.77 206.736C1190.28 206.736 1191.22 207.717 1192.58 209.68C1194.03 211.557 1195.36 214.075 1196.55 217.232C1197.74 220.304 1198.34 222.693 1198.34 224.4C1198.34 227.728 1195.78 230.373 1190.66 232.336C1185.54 234.299 1179.48 235.28 1172.49 235.28C1161.22 235.28 1151.96 231.312 1144.71 223.376C1137.46 215.44 1133.83 204.261 1133.83 189.84C1133.83 175.333 1137.54 163.941 1144.97 155.664C1152.48 147.387 1161.82 143.248 1173 143.248ZM1248.46 179.984C1250.08 179.984 1250.89 182.971 1250.89 188.944C1250.89 190.736 1250.68 192.869 1250.25 195.344C1249.91 197.733 1249.23 198.928 1248.2 198.928H1231.95V211.728H1255.5C1256.95 211.728 1257.93 213.605 1258.44 217.36C1258.7 218.981 1258.83 220.731 1258.83 222.608C1258.83 224.4 1258.57 226.747 1258.06 229.648C1257.55 232.549 1256.69 234 1255.5 234H1211.72C1208.48 234 1206.86 232.677 1206.86 230.032V147.728C1206.86 145.509 1207.84 144.4 1209.8 144.4H1255.63C1257.42 144.4 1258.32 148.197 1258.32 155.792C1258.32 163.301 1257.42 167.056 1255.63 167.056H1231.95V179.984H1248.46ZM1267.43 226.448V146.832C1267.43 145.04 1271.73 144.144 1280.35 144.144C1289.06 144.144 1293.41 145.04 1293.41 146.832V209.552H1313.12C1314.66 209.552 1315.72 211.557 1316.32 215.568C1316.58 217.531 1316.71 219.536 1316.71 221.584C1316.71 223.632 1316.58 225.723 1316.32 227.856C1315.64 231.952 1314.53 234 1312.99 234H1273.57C1271.69 234 1270.2 233.232 1269.09 231.696C1267.98 230.16 1267.43 228.411 1267.43 226.448ZM1321.77 226.448V146.832C1321.77 145.04 1326.08 144.144 1334.7 144.144C1343.4 144.144 1347.75 145.04 1347.75 146.832V209.552H1367.47C1369 209.552 1370.07 211.557 1370.67 215.568C1370.92 217.531 1371.05 219.536 1371.05 221.584C1371.05 223.632 1370.92 225.723 1370.67 227.856C1369.98 231.952 1368.87 234 1367.34 234H1327.91C1326.04 234 1324.54 233.232 1323.43 231.696C1322.32 230.16 1321.77 228.411 1321.77 226.448ZM1418.99 179.984C1420.62 179.984 1421.43 182.971 1421.43 188.944C1421.43 190.736 1421.21 192.869 1420.79 195.344C1420.45 197.733 1419.76 198.928 1418.74 198.928H1402.48V211.728H1426.03C1427.49 211.728 1428.47 213.605 1428.98 217.36C1429.23 218.981 1429.36 220.731 1429.36 222.608C1429.36 224.4 1429.11 226.747 1428.59 229.648C1428.08 232.549 1427.23 234 1426.03 234H1382.26C1379.02 234 1377.39 232.677 1377.39 230.032V147.728C1377.39 145.509 1378.38 144.4 1380.34 144.4H1426.16C1427.95 144.4 1428.85 148.197 1428.85 155.792C1428.85 163.301 1427.95 167.056 1426.16 167.056H1402.48V179.984H1418.99ZM1509.38 231.184C1509.38 232.976 1505.37 233.872 1497.35 233.872C1489.33 233.872 1484.98 233.232 1484.3 231.952L1462.92 192.016V231.824C1462.92 233.36 1458.95 234.128 1451.02 234.128C1443.17 234.128 1439.24 233.36 1439.24 231.824V146.192C1439.24 144.912 1442.61 144.272 1449.35 144.272C1452 144.272 1455.07 144.528 1458.57 145.04C1462.15 145.467 1464.33 146.32 1465.1 147.6L1485.58 187.024V146.832C1485.58 145.211 1489.54 144.4 1497.48 144.4C1505.42 144.4 1509.38 145.211 1509.38 146.832V231.184ZM1557.57 143.248C1563.8 143.248 1569.26 144.144 1573.95 145.936C1578.73 147.643 1581.12 149.989 1581.12 152.976C1581.12 155.963 1579.97 159.675 1577.66 164.112C1575.45 168.464 1573.57 170.64 1572.03 170.64C1571.61 170.64 1571.09 170.427 1570.5 170C1569.98 169.488 1568.7 168.976 1566.66 168.464C1564.69 167.867 1562.99 167.568 1561.54 167.568C1556.59 167.568 1552.58 169.317 1549.5 172.816C1546.52 176.315 1545.02 181.691 1545.02 188.944C1545.02 196.112 1546.56 201.445 1549.63 204.944C1552.79 208.443 1556.76 210.192 1561.54 210.192C1563.5 210.192 1565.67 209.936 1568.06 209.424C1570.54 208.827 1572.29 208.016 1573.31 206.992C1573.48 206.821 1573.82 206.736 1574.34 206.736C1574.85 206.736 1575.79 207.717 1577.15 209.68C1578.6 211.557 1579.93 214.075 1581.12 217.232C1582.31 220.304 1582.91 222.693 1582.91 224.4C1582.91 227.728 1580.35 230.373 1575.23 232.336C1570.11 234.299 1564.05 235.28 1557.06 235.28C1545.79 235.28 1536.53 231.312 1529.28 223.376C1522.03 215.44 1518.4 204.261 1518.4 189.84C1518.4 175.333 1522.11 163.941 1529.54 155.664C1537.05 147.387 1546.39 143.248 1557.57 143.248ZM1633.03 179.984C1634.65 179.984 1635.46 182.971 1635.46 188.944C1635.46 190.736 1635.25 192.869 1634.82 195.344C1634.48 197.733 1633.8 198.928 1632.77 198.928H1616.52V211.728H1640.07C1641.52 211.728 1642.5 213.605 1643.01 217.36C1643.27 218.981 1643.4 220.731 1643.4 222.608C1643.4 224.4 1643.14 226.747 1642.63 229.648C1642.12 232.549 1641.26 234 1640.07 234H1596.29C1593.05 234 1591.43 232.677 1591.43 230.032V147.728C1591.43 145.509 1592.41 144.4 1594.37 144.4H1640.2C1641.99 144.4 1642.89 148.197 1642.89 155.792C1642.89 163.301 1641.99 167.056 1640.2 167.056H1616.52V179.984H1633.03Z" fill="black"/>
<path d="M667.968 346.088C667.968 349.416 666.528 351.944 663.648 353.672C665.216 354.248 666.528 355.24 667.584 356.648C668.64 358.056 669.168 360.056 669.168 362.648C669.168 365.208 668.208 367.24 666.288 368.744C664.4 370.248 661.68 371 658.128 371H646.8C646.256 371 645.808 370.824 645.456 370.472C645.104 370.088 644.928 369.592 644.928 368.984V338.264C644.928 337.912 644.976 337.688 645.072 337.592C645.2 337.464 645.44 337.4 645.792 337.4H656.736C664.224 337.4 667.968 340.296 667.968 346.088ZM654.144 345.176V351.464H654.384C657.456 351.464 658.992 350.44 658.992 348.392C658.992 347.272 658.688 346.456 658.08 345.944C657.504 345.432 656.528 345.176 655.152 345.176H654.144ZM654.144 357.128V363.368H655.008C656.384 363.368 657.392 363.112 658.032 362.6C658.672 362.088 658.992 361.272 658.992 360.152C658.992 359.032 658.688 358.248 658.08 357.8C657.504 357.352 656.528 357.128 655.152 357.128H654.144ZM681.588 370.328C681.588 370.84 680.068 371.096 677.028 371.096C673.956 371.096 672.42 370.856 672.42 370.376V339.08C672.42 337.96 673.012 337.4 674.196 337.4H683.364C691.78 337.4 695.988 340.68 695.988 347.24C695.988 349.224 695.604 351.032 694.836 352.664C694.068 354.264 692.98 355.544 691.572 356.504L697.62 366.584C697.364 367.352 696.532 368.232 695.124 369.224C693.204 370.6 691.62 371.288 690.372 371.288C689.124 371.288 688.196 370.84 687.588 369.944L683.076 359.432H681.588V370.328ZM681.588 345.896V353.096H681.828C684.868 353.096 686.388 351.832 686.388 349.304C686.388 348.152 686.084 347.304 685.476 346.76C684.9 346.184 683.94 345.896 682.596 345.896H681.588ZM722.813 371.096C720.029 371.096 718.525 370.648 718.301 369.752L716.717 363.56H709.085L707.693 369.512C707.501 370.504 705.965 371 703.085 371C701.549 371 700.413 370.92 699.677 370.76C698.941 370.568 698.573 370.424 698.573 370.328L707.069 337.832C707.069 337.576 709.261 337.448 713.645 337.448C718.029 337.448 720.221 337.576 720.221 337.832L728.525 370.376C728.525 370.6 727.789 370.776 726.317 370.904C724.845 371.032 723.677 371.096 722.813 371.096ZM710.285 357.464H715.325L713.165 347.528H712.877L710.285 357.464ZM757.53 369.944C757.53 370.616 756.026 370.952 753.018 370.952C750.01 370.952 748.378 370.712 748.122 370.232L740.106 355.256V370.184C740.106 370.76 738.618 371.048 735.642 371.048C732.698 371.048 731.226 370.76 731.226 370.184V338.072C731.226 337.592 732.49 337.352 735.018 337.352C736.01 337.352 737.162 337.448 738.474 337.64C739.818 337.8 740.634 338.12 740.922 338.6L748.602 353.384V338.312C748.602 337.704 750.09 337.4 753.066 337.4C756.042 337.4 757.53 337.704 757.53 338.312V369.944ZM761.871 368.792V339.992C761.871 339.192 762.063 338.568 762.447 338.12C762.863 337.64 763.391 337.4 764.031 337.4H772.047C777.135 337.4 780.991 338.68 783.615 341.24C786.271 343.8 787.599 347.832 787.599 353.336C787.599 365.112 782.575 371 772.527 371H764.319C762.687 371 761.871 370.264 761.871 368.792ZM771.087 346.52V360.872C771.087 361.544 771.135 361.976 771.231 362.168C771.327 362.328 771.615 362.408 772.095 362.408C773.855 362.408 775.183 361.752 776.079 360.44C777.007 359.128 777.471 356.952 777.471 353.912C777.471 350.84 776.991 348.84 776.031 347.912C775.103 346.984 773.615 346.52 771.567 346.52H771.087ZM792.217 359.288C792.825 359.768 793.865 360.424 795.337 361.256C796.841 362.088 798.265 362.504 799.609 362.504C800.985 362.504 801.673 361.976 801.673 360.92C801.673 360.44 801.481 360.024 801.097 359.672C800.713 359.288 800.009 358.856 798.985 358.376C797.961 357.896 797.193 357.528 796.681 357.272C796.169 356.984 795.481 356.536 794.617 355.928C793.785 355.288 793.145 354.632 792.697 353.96C791.417 352.136 790.777 349.816 790.777 347C790.777 344.184 791.817 341.816 793.897 339.896C796.009 337.944 798.761 336.968 802.153 336.968C804.457 336.968 806.585 337.224 808.537 337.736C810.489 338.216 811.497 338.856 811.561 339.656C811.561 339.752 811.561 339.848 811.561 339.944C811.561 341.064 811.209 342.488 810.505 344.216C809.801 345.912 809.305 346.856 809.017 347.048C806.969 345.992 805.129 345.464 803.497 345.464C801.897 345.464 801.097 346.04 801.097 347.192C801.097 347.896 801.689 348.52 802.873 349.064C803.129 349.192 803.497 349.368 803.977 349.592C804.457 349.816 805.001 350.088 805.609 350.408C806.249 350.696 806.921 351.08 807.625 351.56C808.361 352.008 809.145 352.616 809.977 353.384C811.673 354.984 812.521 357.096 812.521 359.72C812.521 363.144 811.577 365.944 809.689 368.12C807.801 370.296 804.889 371.416 800.953 371.48C799.033 371.48 797.289 371.32 795.721 371C794.185 370.68 792.841 370.056 791.689 369.128C790.537 368.2 789.961 367.08 789.961 365.768C789.961 364.456 790.201 363.16 790.681 361.88C791.161 360.568 791.673 359.704 792.217 359.288ZM838.284 336.968C840.62 336.968 842.668 337.304 844.428 337.976C846.22 338.616 847.116 339.496 847.116 340.616C847.116 341.736 846.684 343.128 845.82 344.792C844.988 346.424 844.284 347.24 843.708 347.24C843.548 347.24 843.356 347.16 843.132 347C842.94 346.808 842.46 346.616 841.692 346.424C840.956 346.2 840.316 346.088 839.772 346.088C837.916 346.088 836.412 346.744 835.26 348.056C834.14 349.368 833.58 351.384 833.58 354.104C833.58 356.792 834.156 358.792 835.308 360.104C836.492 361.416 837.98 362.072 839.772 362.072C840.508 362.072 841.324 361.976 842.22 361.784C843.148 361.56 843.804 361.256 844.188 360.872C844.252 360.808 844.38 360.776 844.572 360.776C844.764 360.776 845.116 361.144 845.628 361.88C846.172 362.584 846.668 363.528 847.116 364.712C847.564 365.864 847.788 366.76 847.788 367.4C847.788 368.648 846.828 369.64 844.908 370.376C842.988 371.112 840.716 371.48 838.092 371.48C833.868 371.48 830.396 369.992 827.676 367.016C824.956 364.04 823.596 359.848 823.596 354.44C823.596 349 824.988 344.728 827.772 341.624C830.588 338.52 834.092 336.968 838.284 336.968ZM865.238 371.48C860.758 371.48 857.094 370.008 854.246 367.064C851.43 364.12 850.022 359.832 850.022 354.2C850.022 348.536 851.446 344.248 854.294 341.336C857.174 338.424 860.87 336.968 865.382 336.968C869.926 336.968 873.59 338.408 876.374 341.288C879.158 344.136 880.55 348.472 880.55 354.296C880.55 360.088 879.126 364.408 876.278 367.256C873.43 370.072 869.75 371.48 865.238 371.48ZM865.286 346.184C863.75 346.184 862.454 346.888 861.398 348.296C860.374 349.704 859.862 351.688 859.862 354.248C859.862 356.776 860.358 358.728 861.35 360.104C862.342 361.448 863.638 362.12 865.238 362.12C866.87 362.12 868.182 361.432 869.174 360.056C870.198 358.68 870.71 356.712 870.71 354.152C870.71 351.592 870.182 349.624 869.126 348.248C868.102 346.872 866.822 346.184 865.286 346.184ZM883.444 368.168V338.312C883.444 337.64 885.06 337.304 888.292 337.304C891.556 337.304 893.188 337.64 893.188 338.312V361.832H900.58C901.156 361.832 901.556 362.584 901.78 364.088C901.876 364.824 901.924 365.576 901.924 366.344C901.924 367.112 901.876 367.896 901.78 368.696C901.524 370.232 901.108 371 900.532 371H885.748C885.044 371 884.484 370.712 884.068 370.136C883.652 369.56 883.444 368.904 883.444 368.168ZM903.823 368.168V338.312C903.823 337.64 905.439 337.304 908.671 337.304C911.935 337.304 913.567 337.64 913.567 338.312V361.832H920.959C921.535 361.832 921.935 362.584 922.159 364.088C922.255 364.824 922.303 365.576 922.303 366.344C922.303 367.112 922.255 367.896 922.159 368.696C921.903 370.232 921.487 371 920.911 371H906.127C905.423 371 904.863 370.712 904.447 370.136C904.031 369.56 903.823 368.904 903.823 368.168ZM947.243 371.096C944.459 371.096 942.955 370.648 942.731 369.752L941.147 363.56H933.515L932.123 369.512C931.931 370.504 930.395 371 927.515 371C925.979 371 924.843 370.92 924.107 370.76C923.371 370.568 923.003 370.424 923.003 370.328L931.499 337.832C931.499 337.576 933.691 337.448 938.075 337.448C942.459 337.448 944.651 337.576 944.651 337.832L952.955 370.376C952.955 370.6 952.219 370.776 950.747 370.904C949.275 371.032 948.107 371.096 947.243 371.096ZM934.715 357.464H939.755L937.595 347.528H937.307L934.715 357.464ZM979.224 346.088C979.224 349.416 977.784 351.944 974.904 353.672C976.472 354.248 977.784 355.24 978.84 356.648C979.896 358.056 980.424 360.056 980.424 362.648C980.424 365.208 979.464 367.24 977.544 368.744C975.656 370.248 972.936 371 969.384 371H958.056C957.512 371 957.064 370.824 956.712 370.472C956.36 370.088 956.184 369.592 956.184 368.984V338.264C956.184 337.912 956.232 337.688 956.328 337.592C956.456 337.464 956.696 337.4 957.048 337.4H967.992C975.48 337.4 979.224 340.296 979.224 346.088ZM965.4 345.176V351.464H965.64C968.712 351.464 970.248 350.44 970.248 348.392C970.248 347.272 969.944 346.456 969.336 345.944C968.76 345.432 967.784 345.176 966.408 345.176H965.4ZM965.4 357.128V363.368H966.264C967.64 363.368 968.648 363.112 969.288 362.6C969.928 362.088 970.248 361.272 970.248 360.152C970.248 359.032 969.944 358.248 969.336 357.8C968.76 357.352 967.784 357.128 966.408 357.128H965.4ZM997.932 371.48C993.452 371.48 989.788 370.008 986.94 367.064C984.124 364.12 982.716 359.832 982.716 354.2C982.716 348.536 984.14 344.248 986.988 341.336C989.868 338.424 993.564 336.968 998.076 336.968C1002.62 336.968 1006.28 338.408 1009.07 341.288C1011.85 344.136 1013.24 348.472 1013.24 354.296C1013.24 360.088 1011.82 364.408 1008.97 367.256C1006.12 370.072 1002.44 371.48 997.932 371.48ZM997.98 346.184C996.444 346.184 995.148 346.888 994.092 348.296C993.068 349.704 992.556 351.688 992.556 354.248C992.556 356.776 993.052 358.728 994.044 360.104C995.036 361.448 996.332 362.12 997.932 362.12C999.564 362.12 1000.88 361.432 1001.87 360.056C1002.89 358.68 1003.4 356.712 1003.4 354.152C1003.4 351.592 1002.88 349.624 1001.82 348.248C1000.8 346.872 999.516 346.184 997.98 346.184ZM1025.79 370.328C1025.79 370.84 1024.27 371.096 1021.23 371.096C1018.15 371.096 1016.62 370.856 1016.62 370.376V339.08C1016.62 337.96 1017.21 337.4 1018.39 337.4H1027.56C1035.98 337.4 1040.19 340.68 1040.19 347.24C1040.19 349.224 1039.8 351.032 1039.03 352.664C1038.27 354.264 1037.18 355.544 1035.77 356.504L1041.82 366.584C1041.56 367.352 1040.73 368.232 1039.32 369.224C1037.4 370.6 1035.82 371.288 1034.57 371.288C1033.32 371.288 1032.39 370.84 1031.79 369.944L1027.27 359.432H1025.79V370.328ZM1025.79 345.896V353.096H1026.03C1029.07 353.096 1030.59 351.832 1030.59 349.304C1030.59 348.152 1030.28 347.304 1029.67 346.76C1029.1 346.184 1028.14 345.896 1026.79 345.896H1025.79ZM1067.01 371.096C1064.23 371.096 1062.72 370.648 1062.5 369.752L1060.91 363.56H1053.28L1051.89 369.512C1051.7 370.504 1050.16 371 1047.28 371C1045.75 371 1044.61 370.92 1043.87 370.76C1043.14 370.568 1042.77 370.424 1042.77 370.328L1051.27 337.832C1051.27 337.576 1053.46 337.448 1057.84 337.448C1062.23 337.448 1064.42 337.576 1064.42 337.832L1072.72 370.376C1072.72 370.6 1071.99 370.776 1070.51 370.904C1069.04 371.032 1067.87 371.096 1067.01 371.096ZM1054.48 357.464H1059.52L1057.36 347.528H1057.07L1054.48 357.464ZM1088.65 370.232C1088.65 370.872 1087.07 371.192 1083.9 371.192C1080.73 371.192 1079.15 370.872 1079.15 370.232V346.136H1073.39C1072.84 346.136 1072.46 345.4 1072.24 343.928C1072.14 343.224 1072.09 342.504 1072.09 341.768C1072.09 341.032 1072.14 340.312 1072.24 339.608C1072.46 338.136 1072.84 337.4 1073.39 337.4H1094.27C1094.81 337.4 1095.2 338.136 1095.42 339.608C1095.52 340.312 1095.56 341.032 1095.56 341.768C1095.56 342.504 1095.52 343.224 1095.42 343.928C1095.2 345.4 1094.81 346.136 1094.27 346.136H1088.65V370.232ZM1100.99 362.744V345.656H1097.58C1097.03 345.656 1096.65 344.968 1096.43 343.592C1096.33 342.92 1096.28 342.232 1096.28 341.528C1096.28 340.824 1096.33 340.136 1096.43 339.464C1096.65 338.088 1097.03 337.4 1097.58 337.4H1113.71C1114.25 337.4 1114.62 338.088 1114.81 339.464C1114.94 340.136 1115 340.824 1115 341.528C1115 342.232 1114.94 342.92 1114.81 343.592C1114.62 344.968 1114.25 345.656 1113.71 345.656H1110.49V362.744H1113.85C1114.39 362.744 1114.78 363.432 1115 364.808C1115.13 365.48 1115.19 366.168 1115.19 366.872C1115.19 367.576 1115.13 368.264 1115 368.936C1114.78 370.312 1114.39 371 1113.85 371H1097.67C1097.13 371 1096.76 370.312 1096.57 368.936C1096.44 368.264 1096.38 367.576 1096.38 366.872C1096.38 366.168 1096.44 365.48 1096.57 364.808C1096.76 363.432 1097.13 362.744 1097.67 362.744H1100.99ZM1144.22 369.944C1144.22 370.616 1142.72 370.952 1139.71 370.952C1136.7 370.952 1135.07 370.712 1134.81 370.232L1126.8 355.256V370.184C1126.8 370.76 1125.31 371.048 1122.33 371.048C1119.39 371.048 1117.92 370.76 1117.92 370.184V338.072C1117.92 337.592 1119.18 337.352 1121.71 337.352C1122.7 337.352 1123.85 337.448 1125.16 337.64C1126.51 337.8 1127.32 338.12 1127.61 338.6L1135.29 353.384V338.312C1135.29 337.704 1136.78 337.4 1139.76 337.4C1142.73 337.4 1144.22 337.704 1144.22 338.312V369.944ZM1166.32 360.968L1166.42 354.44C1166.42 353.992 1166.88 353.704 1167.81 353.576C1168.74 353.416 1169.51 353.336 1170.11 353.336L1171.99 353.48C1173.2 353.672 1173.81 354.008 1173.81 354.488L1173.62 369.512C1172.98 369.96 1171.68 370.408 1169.73 370.856C1167.81 371.272 1165.6 371.48 1163.11 371.48C1158.47 371.48 1154.72 369.976 1151.87 366.968C1149.03 363.96 1147.6 359.544 1147.6 353.72C1147.6 348.76 1148.99 344.728 1151.78 341.624C1154.56 338.52 1158.42 336.968 1163.35 336.968C1165.59 336.968 1167.6 337.192 1169.39 337.64C1171.22 338.056 1172.47 338.632 1173.14 339.368C1173.17 339.624 1173.19 340.104 1173.19 340.808C1173.19 341.512 1172.95 342.52 1172.47 343.832C1171.99 345.112 1171.44 346.072 1170.83 346.712C1170.23 347.352 1169.78 347.672 1169.49 347.672C1169.23 347.672 1168.95 347.56 1168.63 347.336C1168.34 347.08 1167.75 346.824 1166.85 346.568C1165.95 346.28 1165.09 346.136 1164.26 346.136C1162.27 346.136 1160.66 346.776 1159.41 348.056C1158.19 349.336 1157.59 351.32 1157.59 354.008C1157.59 356.696 1158.21 358.744 1159.46 360.152C1160.74 361.528 1162.19 362.216 1163.83 362.216C1165.49 362.216 1166.32 361.8 1166.32 360.968ZM1204.41 337.4C1204.96 337.4 1205.23 338.824 1205.23 341.672C1205.23 344.488 1204.96 345.896 1204.41 345.896H1195.63V351.368H1201.48C1202.03 351.368 1202.3 352.616 1202.3 355.112C1202.3 357.576 1202.04 358.808 1201.53 358.808H1195.63V370.376C1195.63 370.824 1195.02 371.112 1193.8 371.24C1192.62 371.4 1191.63 371.48 1190.83 371.48L1188.57 371.384C1187 371.192 1186.22 370.872 1186.22 370.424V338.648C1186.22 338.136 1186.32 337.8 1186.51 337.64C1186.73 337.48 1187.05 337.4 1187.47 337.4H1204.41ZM1222.88 371.48C1218.4 371.48 1214.73 370.008 1211.89 367.064C1209.07 364.12 1207.66 359.832 1207.66 354.2C1207.66 348.536 1209.09 344.248 1211.93 341.336C1214.81 338.424 1218.51 336.968 1223.02 336.968C1227.57 336.968 1231.23 338.408 1234.01 341.288C1236.8 344.136 1238.19 348.472 1238.19 354.296C1238.19 360.088 1236.77 364.408 1233.92 367.256C1231.07 370.072 1227.39 371.48 1222.88 371.48ZM1222.93 346.184C1221.39 346.184 1220.09 346.888 1219.04 348.296C1218.01 349.704 1217.5 351.688 1217.5 354.248C1217.5 356.776 1218 358.728 1218.99 360.104C1219.98 361.448 1221.28 362.12 1222.88 362.12C1224.51 362.12 1225.82 361.432 1226.81 360.056C1227.84 358.68 1228.35 356.712 1228.35 354.152C1228.35 351.592 1227.82 349.624 1226.77 348.248C1225.74 346.872 1224.46 346.184 1222.93 346.184ZM1250.73 370.328C1250.73 370.84 1249.21 371.096 1246.17 371.096C1243.1 371.096 1241.56 370.856 1241.56 370.376V339.08C1241.56 337.96 1242.16 337.4 1243.34 337.4H1252.51C1260.92 337.4 1265.13 340.68 1265.13 347.24C1265.13 349.224 1264.75 351.032 1263.98 352.664C1263.21 354.264 1262.12 355.544 1260.72 356.504L1266.76 366.584C1266.51 367.352 1265.68 368.232 1264.27 369.224C1262.35 370.6 1260.76 371.288 1259.52 371.288C1258.27 371.288 1257.34 370.84 1256.73 369.944L1252.22 359.432H1250.73V370.328ZM1250.73 345.896V353.096H1250.97C1254.01 353.096 1255.53 351.832 1255.53 349.304C1255.53 348.152 1255.23 347.304 1254.62 346.76C1254.04 346.184 1253.08 345.896 1251.74 345.896H1250.73ZM1279.21 359.288C1279.82 359.768 1280.86 360.424 1282.33 361.256C1283.83 362.088 1285.26 362.504 1286.6 362.504C1287.98 362.504 1288.67 361.976 1288.67 360.92C1288.67 360.44 1288.47 360.024 1288.09 359.672C1287.71 359.288 1287 358.856 1285.98 358.376C1284.95 357.896 1284.19 357.528 1283.67 357.272C1283.16 356.984 1282.47 356.536 1281.61 355.928C1280.78 355.288 1280.14 354.632 1279.69 353.96C1278.41 352.136 1277.77 349.816 1277.77 347C1277.77 344.184 1278.81 341.816 1280.89 339.896C1283 337.944 1285.75 336.968 1289.15 336.968C1291.45 336.968 1293.58 337.224 1295.53 337.736C1297.48 338.216 1298.49 338.856 1298.55 339.656C1298.55 339.752 1298.55 339.848 1298.55 339.944C1298.55 341.064 1298.2 342.488 1297.5 344.216C1296.79 345.912 1296.3 346.856 1296.01 347.048C1293.96 345.992 1292.12 345.464 1290.49 345.464C1288.89 345.464 1288.09 346.04 1288.09 347.192C1288.09 347.896 1288.68 348.52 1289.87 349.064C1290.12 349.192 1290.49 349.368 1290.97 349.592C1291.45 349.816 1291.99 350.088 1292.6 350.408C1293.24 350.696 1293.91 351.08 1294.62 351.56C1295.35 352.008 1296.14 352.616 1296.97 353.384C1298.67 354.984 1299.51 357.096 1299.51 359.72C1299.51 363.144 1298.57 365.944 1296.68 368.12C1294.79 370.296 1291.88 371.416 1287.95 371.48C1286.03 371.48 1284.28 371.32 1282.71 371C1281.18 370.68 1279.83 370.056 1278.68 369.128C1277.53 368.2 1276.95 367.08 1276.95 365.768C1276.95 364.456 1277.19 363.16 1277.67 361.88C1278.15 360.568 1278.67 359.704 1279.21 359.288ZM1318.68 338.36C1318.68 337.72 1320.41 337.4 1323.86 337.4C1327.35 337.4 1329.09 337.72 1329.09 338.36V360.392C1329.09 363.656 1327.93 366.328 1325.59 368.408C1323.25 370.456 1320.02 371.48 1315.89 371.48C1311.8 371.48 1308.45 370.424 1305.86 368.312C1303.3 366.168 1302.02 363.288 1302.02 359.672V338.408C1302.02 337.768 1303.75 337.448 1307.21 337.448C1310.69 337.448 1312.44 337.768 1312.44 338.408V360.056C1312.44 360.696 1312.77 361.208 1313.45 361.592C1314.15 361.976 1314.89 362.168 1315.65 362.168C1316.42 362.168 1317.11 361.992 1317.72 361.64C1318.36 361.288 1318.68 360.76 1318.68 360.056V338.36ZM1346.37 336.968C1348.71 336.968 1350.76 337.304 1352.52 337.976C1354.31 338.616 1355.2 339.496 1355.2 340.616C1355.2 341.736 1354.77 343.128 1353.91 344.792C1353.08 346.424 1352.37 347.24 1351.8 347.24C1351.64 347.24 1351.44 347.16 1351.22 347C1351.03 346.808 1350.55 346.616 1349.78 346.424C1349.04 346.2 1348.4 346.088 1347.86 346.088C1346 346.088 1344.5 346.744 1343.35 348.056C1342.23 349.368 1341.67 351.384 1341.67 354.104C1341.67 356.792 1342.24 358.792 1343.4 360.104C1344.58 361.416 1346.07 362.072 1347.86 362.072C1348.6 362.072 1349.41 361.976 1350.31 361.784C1351.24 361.56 1351.89 361.256 1352.28 360.872C1352.34 360.808 1352.47 360.776 1352.66 360.776C1352.85 360.776 1353.2 361.144 1353.72 361.88C1354.26 362.584 1354.76 363.528 1355.2 364.712C1355.65 365.864 1355.88 366.76 1355.88 367.4C1355.88 368.648 1354.92 369.64 1353 370.376C1351.08 371.112 1348.8 371.48 1346.18 371.48C1341.96 371.48 1338.48 369.992 1335.76 367.016C1333.04 364.04 1331.68 359.848 1331.68 354.44C1331.68 349 1333.08 344.728 1335.86 341.624C1338.68 338.52 1342.18 336.968 1346.37 336.968ZM1372.8 336.968C1375.13 336.968 1377.18 337.304 1378.94 337.976C1380.73 338.616 1381.63 339.496 1381.63 340.616C1381.63 341.736 1381.2 343.128 1380.33 344.792C1379.5 346.424 1378.8 347.24 1378.22 347.24C1378.06 347.24 1377.87 347.16 1377.65 347C1377.45 346.808 1376.97 346.616 1376.21 346.424C1375.47 346.2 1374.83 346.088 1374.29 346.088C1372.43 346.088 1370.93 346.744 1369.77 348.056C1368.65 349.368 1368.09 351.384 1368.09 354.104C1368.09 356.792 1368.67 358.792 1369.82 360.104C1371.01 361.416 1372.49 362.072 1374.29 362.072C1375.02 362.072 1375.84 361.976 1376.73 361.784C1377.66 361.56 1378.32 361.256 1378.7 360.872C1378.77 360.808 1378.89 360.776 1379.09 360.776C1379.28 360.776 1379.63 361.144 1380.14 361.88C1380.69 362.584 1381.18 363.528 1381.63 364.712C1382.08 365.864 1382.3 366.76 1382.3 367.4C1382.3 368.648 1381.34 369.64 1379.42 370.376C1377.5 371.112 1375.23 371.48 1372.61 371.48C1368.38 371.48 1364.91 369.992 1362.19 367.016C1359.47 364.04 1358.11 359.848 1358.11 354.44C1358.11 349 1359.5 344.728 1362.29 341.624C1365.1 338.52 1368.61 336.968 1372.8 336.968ZM1401.1 350.744C1401.7 350.744 1402.01 351.864 1402.01 354.104C1402.01 354.776 1401.93 355.576 1401.77 356.504C1401.64 357.4 1401.38 357.848 1401 357.848H1394.9V362.648H1403.74C1404.28 362.648 1404.65 363.352 1404.84 364.76C1404.94 365.368 1404.98 366.024 1404.98 366.728C1404.98 367.4 1404.89 368.28 1404.7 369.368C1404.5 370.456 1404.18 371 1403.74 371H1387.32C1386.1 371 1385.5 370.504 1385.5 369.512V338.648C1385.5 337.816 1385.86 337.4 1386.6 337.4H1403.78C1404.46 337.4 1404.79 338.824 1404.79 341.672C1404.79 344.488 1404.46 345.896 1403.78 345.896H1394.9V350.744H1401.1ZM1409.94 359.288C1410.54 359.768 1411.58 360.424 1413.06 361.256C1414.56 362.088 1415.98 362.504 1417.33 362.504C1418.7 362.504 1419.39 361.976 1419.39 360.92C1419.39 360.44 1419.2 360.024 1418.82 359.672C1418.43 359.288 1417.73 358.856 1416.7 358.376C1415.68 357.896 1414.91 357.528 1414.4 357.272C1413.89 356.984 1413.2 356.536 1412.34 355.928C1411.5 355.288 1410.86 354.632 1410.42 353.96C1409.14 352.136 1408.5 349.816 1408.5 347C1408.5 344.184 1409.54 341.816 1411.62 339.896C1413.73 337.944 1416.48 336.968 1419.87 336.968C1422.18 336.968 1424.3 337.224 1426.26 337.736C1428.21 338.216 1429.22 338.856 1429.28 339.656C1429.28 339.752 1429.28 339.848 1429.28 339.944C1429.28 341.064 1428.93 342.488 1428.22 344.216C1427.52 345.912 1427.02 346.856 1426.74 347.048C1424.69 345.992 1422.85 345.464 1421.22 345.464C1419.62 345.464 1418.82 346.04 1418.82 347.192C1418.82 347.896 1419.41 348.52 1420.59 349.064C1420.85 349.192 1421.22 349.368 1421.7 349.592C1422.18 349.816 1422.72 350.088 1423.33 350.408C1423.97 350.696 1424.64 351.08 1425.34 351.56C1426.08 352.008 1426.86 352.616 1427.7 353.384C1429.39 354.984 1430.24 357.096 1430.24 359.72C1430.24 363.144 1429.3 365.944 1427.41 368.12C1425.52 370.296 1422.61 371.416 1418.67 371.48C1416.75 371.48 1415.01 371.32 1413.44 371C1411.9 370.68 1410.56 370.056 1409.41 369.128C1408.26 368.2 1407.68 367.08 1407.68 365.768C1407.68 364.456 1407.92 363.16 1408.4 361.88C1408.88 360.568 1409.39 359.704 1409.94 359.288ZM1434.96 359.288C1435.56 359.768 1436.6 360.424 1438.08 361.256C1439.58 362.088 1441 362.504 1442.35 362.504C1443.72 362.504 1444.41 361.976 1444.41 360.92C1444.41 360.44 1444.22 360.024 1443.84 359.672C1443.45 359.288 1442.75 358.856 1441.72 358.376C1440.7 357.896 1439.93 357.528 1439.42 357.272C1438.91 356.984 1438.22 356.536 1437.36 355.928C1436.52 355.288 1435.88 354.632 1435.44 353.96C1434.16 352.136 1433.52 349.816 1433.52 347C1433.52 344.184 1434.56 341.816 1436.64 339.896C1438.75 337.944 1441.5 336.968 1444.89 336.968C1447.2 336.968 1449.32 337.224 1451.28 337.736C1453.23 338.216 1454.24 338.856 1454.3 339.656C1454.3 339.752 1454.3 339.848 1454.3 339.944C1454.3 341.064 1453.95 342.488 1453.24 344.216C1452.54 345.912 1452.04 346.856 1451.76 347.048C1449.71 345.992 1447.87 345.464 1446.24 345.464C1444.64 345.464 1443.84 346.04 1443.84 347.192C1443.84 347.896 1444.43 348.52 1445.61 349.064C1445.87 349.192 1446.24 349.368 1446.72 349.592C1447.2 349.816 1447.74 350.088 1448.35 350.408C1448.99 350.696 1449.66 351.08 1450.36 351.56C1451.1 352.008 1451.88 352.616 1452.72 353.384C1454.41 354.984 1455.26 357.096 1455.26 359.72C1455.26 363.144 1454.32 365.944 1452.43 368.12C1450.54 370.296 1447.63 371.416 1443.69 371.48C1441.77 371.48 1440.03 371.32 1438.46 371C1436.92 370.68 1435.58 370.056 1434.43 369.128C1433.28 368.2 1432.7 367.08 1432.7 365.768C1432.7 364.456 1432.94 363.16 1433.42 361.88C1433.9 360.568 1434.41 359.704 1434.96 359.288Z" fill="white"/>
</svg>
